<svg width="18" height="16" viewBox="0 0 18 16" fill="none" xmlns="http://www.w3.org/2000/svg">
<path d="M6.49487 2.34614C6.78611 2.34614 7.02222 2.11003 7.02222 1.81879V0.756897C7.02222 0.465663 6.78611 0.229553 6.49487 0.229553C6.20364 0.229553 5.96753 0.465663 5.96753 0.756897V1.81879C5.96753 2.11003 6.20364 2.34614 6.49487 2.34614Z" fill="#FB6400"/>
<path d="M1.71074 4.27645L0.791089 3.74548C0.538842 3.59979 0.216319 3.68628 0.070737 3.93849C-0.0748802 4.19074 0.0115339 4.51326 0.263745 4.65884L1.1834 5.18981C1.43505 5.33514 1.75782 5.24961 1.90375 4.9968C2.04937 4.74455 1.96295 4.42203 1.71074 4.27645Z" fill="#FB6400"/>
<path d="M1.1834 10.1052L0.263745 10.6361C0.0115339 10.7817 -0.0748802 11.1042 0.070737 11.3565C0.217092 11.6099 0.540073 11.6945 0.791089 11.5495L1.71074 11.0185C1.96295 10.8729 2.04937 10.5504 1.90375 10.2982C1.75813 10.046 1.43568 9.95946 1.1834 10.1052Z" fill="#FB6400"/>
<path d="M11.8063 5.18981L12.726 4.65884C12.9782 4.51322 13.0646 4.19074 12.919 3.93849C12.7734 3.68628 12.4509 3.59979 12.1986 3.74548L11.279 4.27645C11.0268 4.42206 10.9403 4.74455 11.086 4.9968C11.2323 5.25027 11.5553 5.33479 11.8063 5.18981Z" fill="#FB6400"/>
<path d="M14.024 8.39614C13.4204 6.90439 11.956 5.91805 10.3451 5.92501C9.68499 4.45516 8.20776 3.42874 6.49484 3.42874C4.16862 3.42874 2.27612 5.32127 2.27612 7.64749C2.27612 9.13991 3.05547 10.4533 4.22817 11.2034C2.97777 13.1788 4.39949 15.7686 6.73868 15.7686C15.036 15.7599 14.582 15.7898 14.7265 15.745C16.5696 15.5371 18 13.9738 18 12.0772C18 9.91134 16.1493 8.22968 14.024 8.39614ZM3.33081 7.64753C3.33081 5.90286 4.75021 4.48346 6.49487 4.48346C7.67138 4.48346 8.69935 5.12928 9.24448 6.08473C7.57811 6.57301 6.42108 8.09433 6.40252 9.83977C5.87869 9.89725 5.38478 10.093 4.95939 10.4128C3.9889 9.87183 3.33081 8.83525 3.33081 7.64753ZM14.527 14.7049C14.3391 14.7201 9.55364 14.7113 6.73868 14.7139C4.99982 14.7139 4.15245 12.5585 5.44623 11.377C5.83457 11.0224 6.35168 10.8337 6.91517 10.885C7.25509 10.9157 7.53209 10.6216 7.48515 10.2866C7.24068 8.5418 8.59184 6.97956 10.357 6.97956C11.6629 6.97956 12.8138 7.85853 13.1559 9.11709C13.229 9.386 13.4988 9.55148 13.7715 9.4952C15.4152 9.15527 16.9453 10.4118 16.9453 12.0772C16.9453 13.4397 15.8831 14.5939 14.527 14.7049Z" fill="#FB6400"/>
</svg>
