<svg width="16" height="18" viewBox="0 0 16 18" fill="none" xmlns="http://www.w3.org/2000/svg">
<path d="M9.99409 18H6.00589L6.4174 14.208C5.82681 14.5018 5.17209 14.6576 4.49867 14.6576C2.12046 14.6576 0.185669 12.7228 0.185669 10.3446C0.185669 8.11705 1.88294 6.27848 4.05226 6.05447C3.81161 5.51099 3.68695 4.92184 3.68695 4.31304C3.68695 1.93482 5.62177 0 7.99999 0C10.3782 0 12.313 1.93482 12.313 4.31304C12.313 4.92184 12.1884 5.51099 11.9477 6.05447C14.117 6.27848 15.8143 8.11705 15.8143 10.3446C15.8143 12.7228 13.8795 14.6576 11.5013 14.6576C10.8279 14.6576 10.1732 14.5018 9.58258 14.208L9.99409 18ZM7.18127 16.9453H8.81871L8.25863 11.7845L9.29254 12.7393C9.89568 13.2962 10.6801 13.6029 11.5013 13.6029C13.2979 13.6029 14.7596 12.1412 14.7596 10.3446C14.7596 8.548 13.2979 7.08634 11.5013 7.08634C11.3667 7.08634 11.2285 7.09513 11.0907 7.11246L9.8529 7.26806L10.6038 6.2718C11.032 5.70361 11.2583 5.02632 11.2583 4.31311C11.2583 2.51648 9.79665 1.05483 8.00002 1.05483C6.2034 1.05483 4.74174 2.51648 4.74174 4.31311C4.74174 5.02632 4.96808 5.70364 5.39632 6.27184L6.14715 7.26806L4.9094 7.11246C4.77145 7.09513 4.63329 7.08634 4.49874 7.08634C2.70212 7.08634 1.24046 8.548 1.24046 10.3446C1.24046 12.1412 2.70212 13.6029 4.49874 13.6029C5.31999 13.6029 6.1044 13.2962 6.7075 12.7393L7.74142 11.7845L7.18127 16.9453Z" fill="#FB6400"/>
</svg>
