<svg width="74" height="74" viewBox="0 0 74 74" fill="none" xmlns="http://www.w3.org/2000/svg">
<g opacity="0.6">
<path d="M31.4391 27.5567L36.6012 21.6485C37.7223 20.2625 37.7223 20.2625 40.0225 20.8788C41.5234 21.281 41.6932 21.3265 42.4045 22.4028L48.4247 32.3992C49.108 33.6074 49.1908 33.7509 48.6707 35.6922C48.2864 37.1264 47.7996 37.2314 45.8809 37.723L37.8863 39.7179L35.1565 49.9054L31.5343 48.9348L34.992 36.0306C34.992 36.0306 38.7902 34.9859 41.3692 34.0998L37.396 26.7871C34.4148 29.446 32.7438 31.7886 31.5326 31.4641L23.2241 29.2378L24.1947 25.6156L31.4391 27.5567Z" fill="#CDD4E0"/>
<path d="M15.9775 54.4721C18.0372 55.024 20.2143 54.9528 22.2334 54.2673C24.2526 53.5819 26.0232 52.3132 27.3213 50.6215C28.6193 48.9298 29.3866 46.8912 29.5261 44.7634C29.6655 42.6356 29.1709 40.5143 28.1048 38.6676C27.0386 36.821 25.4488 35.332 23.5363 34.3888C21.6239 33.4457 19.4748 33.0909 17.3607 33.3692C15.2466 33.6476 13.2625 34.5465 11.6593 35.9525C10.0562 37.3584 8.90591 39.2082 8.35403 41.2679C7.61721 44.0297 8.00607 46.971 9.43527 49.4465C10.8645 51.9219 13.2173 53.7293 15.9775 54.4721ZM20.5877 37.2666C21.931 37.6265 23.1374 38.3767 24.0543 39.4222C24.9712 40.4678 25.5575 41.7617 25.739 43.1405C25.9205 44.5192 25.6891 45.9209 25.074 47.1681C24.459 48.4153 23.4879 49.4522 22.2835 50.1475C21.0792 50.8428 19.6957 51.1654 18.308 51.0745C16.9204 50.9835 15.5908 50.4831 14.4876 49.6365C13.3843 48.7899 12.5568 47.6352 12.1098 46.3184C11.6628 45.0015 11.6163 43.5817 11.9762 42.2384C12.4608 40.4384 13.6396 38.904 15.254 37.972C16.8684 37.0399 18.7866 36.7862 20.5877 37.2666ZM45.8608 62.4794C47.9205 63.0312 50.0976 62.96 52.1168 62.2746C54.1359 61.5892 55.9065 60.3204 57.2046 58.6287C58.5027 56.937 59.2699 54.8984 59.4094 52.7706C59.5489 50.6428 59.0542 48.5215 57.9881 46.6748C56.9219 44.8282 55.3321 43.3392 53.4197 42.3961C51.5072 41.453 49.3581 41.0981 47.244 41.3765C45.1299 41.6548 43.1458 42.5538 41.5427 43.9597C39.9395 45.3656 38.7892 47.2154 38.2374 49.2751C37.5005 52.0369 37.8894 54.9782 39.3186 57.4537C40.7478 59.9291 43.1006 61.7366 45.8608 62.4794ZM50.4711 45.2738C51.8143 45.6337 53.0207 46.3839 53.9376 47.4294C54.8545 48.475 55.4408 49.769 55.6223 51.1477C55.8039 52.5265 55.5724 53.9281 54.9574 55.1753C54.3423 56.4225 53.3712 57.4594 52.1669 58.1547C50.9625 58.85 49.5791 59.1726 48.1914 59.0817C46.8037 58.9907 45.4742 58.4903 44.3709 57.6437C43.2676 56.7972 42.4401 55.6424 41.9931 54.3256C41.5461 53.0087 41.4996 51.5889 41.8596 50.2457C42.3441 48.4456 43.5229 46.9112 45.1373 45.9792C46.7517 45.0471 48.6699 44.7934 50.4711 45.2738ZM33.3805 20.3124C32.9029 20.1862 32.4551 19.9666 32.063 19.6663C31.6708 19.366 31.3421 18.9909 31.0958 18.5628C30.8495 18.1346 30.6905 17.6619 30.6281 17.172C30.5656 16.682 30.6009 16.1845 30.7318 15.7083C30.8538 15.2322 31.0694 14.7851 31.3661 14.3933C31.6628 14.0015 32.0346 13.6728 32.4599 13.4264C32.8851 13.18 33.3552 13.0208 33.8427 12.9582C34.3302 12.8957 34.8253 12.9309 35.299 13.0619C35.775 13.1879 36.2216 13.4064 36.6133 13.7049C37.0049 14.0035 37.3339 14.3763 37.5814 14.802C37.829 15.2277 37.9903 15.698 38.0561 16.186C38.1219 16.6741 38.0909 17.1703 37.965 17.6464C37.839 18.1225 37.6205 18.5691 37.3219 18.9607C37.0234 19.3523 36.6506 19.6813 36.2249 19.9289C35.7991 20.1764 35.3288 20.3377 34.8408 20.4035C34.3528 20.4693 33.8565 20.4384 33.3805 20.3124Z" fill="#CDD4E0"/>
</g>
</svg>
