<svg width="36" height="36" viewBox="0 0 36 36" fill="none" xmlns="http://www.w3.org/2000/svg">
<path d="M28.8751 21.3748C27.7501 18.8248 25.2001 17.0998 22.2751 17.0998C21.6751 17.0998 21.0001 17.1748 20.4001 17.3248C18.2251 17.9248 16.5001 19.4248 15.6751 21.3748C11.9251 21.5998 8.92506 24.6748 8.92506 28.4998C8.92506 32.1748 11.6251 35.1748 15.3001 35.5498C15.6001 35.6248 15.9751 35.6248 16.2751 35.6248H28.0501C28.3501 35.6248 28.6501 35.6248 28.9501 35.5498C32.7001 35.2498 35.5501 32.1748 35.5501 28.4998C35.6251 24.6748 32.6251 21.5998 28.8751 21.3748ZM2.47506 20.4748C1.80006 20.9248 1.57506 21.8248 2.02506 22.4998C2.32506 22.9498 2.77506 23.1748 3.30006 23.1748C3.60006 23.1748 3.82506 23.0998 4.05006 22.9498L5.85006 21.8248C5.25006 21.0748 4.72506 20.1748 4.35006 19.2748L2.47506 20.4748ZM3.75006 12.1498C3.90006 11.6248 4.05006 11.1748 4.27506 10.6498L2.25006 10.1248C1.50006 9.89982 0.675056 10.3498 0.450056 11.1748C0.225056 11.9248 0.675056 12.7498 1.50006 12.9748L3.52506 13.4998C3.60006 13.0498 3.67506 12.5998 3.75006 12.1498ZM7.65006 6.07482C8.02506 5.77482 8.47505 5.47482 8.92506 5.24982C9.30006 5.02482 9.75006 4.79982 10.2001 4.57482L9.07506 2.62482C8.70006 1.94982 7.80006 1.64982 7.05006 2.09982C6.30006 2.39982 6.07506 3.29982 6.45006 4.04982L7.65006 6.07482ZM18.3751 4.49982L18.9751 2.17482C19.2001 1.42482 18.6751 0.599819 17.9251 0.374819C17.1751 0.149819 16.3501 0.674819 16.1251 1.42482L15.5251 3.74982C16.0501 3.82482 16.5751 3.89982 17.1001 4.04982C17.5501 4.19982 17.9251 4.34982 18.3751 4.49982ZM26.1751 9.29982C26.8501 8.84982 27.0751 7.94982 26.6251 7.27482C26.1751 6.59982 25.2751 6.37482 24.6001 6.82482L22.8001 7.94982C23.4001 8.69982 23.9251 9.59982 24.3001 10.4998L26.1751 9.29982ZM13.8751 18.6748C15.2251 16.5748 17.3251 15.1498 19.7251 14.4748C20.5501 14.2498 21.3751 14.1748 22.2001 14.1748C21.9001 10.7248 19.5751 7.79982 16.2751 6.97482C14.2501 6.44982 12.1501 6.74982 10.3501 7.79982C8.47506 8.92482 7.12506 10.7248 6.60006 12.8998C5.85006 16.0498 6.90006 19.2748 9.15006 21.2248C10.5001 19.9498 12.0751 19.0498 13.8751 18.6748Z" fill="#74ADF6"/>
</svg>
