<svg width="48" height="48" viewBox="0 0 48 48" fill="none" xmlns="http://www.w3.org/2000/svg">
<g clip-path="url(#clip0_502_4194)">
<path d="M43.43 36.726C41.1391 39.5035 38.141 41.6112 34.7519 42.8265C31.3628 44.0418 27.7085 44.3197 24.1747 43.6309C20.6408 42.9421 17.3584 41.3122 14.6738 38.913C11.9892 36.5139 10.0021 33.4346 8.922 30H30C30.5304 30 31.0391 29.7893 31.4142 29.4142C31.7893 29.0391 32 28.5304 32 28C32 27.4696 31.7893 26.9609 31.4142 26.5858C31.0391 26.2107 30.5304 26 30 26H8.102C7.96599 24.6701 7.96599 23.3299 8.102 22H30C30.5304 22 31.0391 21.7893 31.4142 21.4142C31.7893 21.0391 32 20.5304 32 20C32 19.4696 31.7893 18.9609 31.4142 18.5858C31.0391 18.2107 30.5304 18 30 18H8.922C10.0021 14.5654 11.9892 11.4861 14.6738 9.08697C17.3584 6.68783 20.6408 5.05787 24.1747 4.36907C27.7085 3.68028 31.3628 3.9582 34.7519 5.17352C38.141 6.38883 41.1391 8.49646 43.43 11.274C43.5973 11.4765 43.8029 11.6441 44.0349 11.7671C44.267 11.8902 44.521 11.9663 44.7825 11.9912C45.044 12.0161 45.3078 11.9892 45.5589 11.9122C45.81 11.8351 46.0435 11.7093 46.246 11.542C46.4485 11.3747 46.6161 11.1691 46.7391 10.9371C46.8622 10.705 46.9383 10.451 46.9632 10.1895C46.9881 9.92801 46.9612 9.66418 46.8842 9.41307C46.8071 9.16197 46.6813 8.9285 46.514 8.726C43.6993 5.31458 39.9959 2.7481 35.8134 1.31039C31.6309 -0.127324 27.1322 -0.380247 22.8149 0.57959C18.4977 1.53943 14.5299 3.67462 11.3506 6.74905C8.17123 9.82347 5.90413 13.7173 4.8 18H2C1.46957 18 0.960859 18.2107 0.585786 18.5858C0.210714 18.9609 0 19.4696 0 20C0 20.5304 0.210714 21.0391 0.585786 21.4142C0.960859 21.7893 1.46957 22 2 22H4.102C4.046 22.662 4 23.324 4 24C4 24.676 4.046 25.338 4.102 26H2C1.46957 26 0.960859 26.2107 0.585786 26.5858C0.210714 26.9609 0 27.4696 0 28C0 28.5304 0.210714 29.0391 0.585786 29.4142C0.960859 29.7893 1.46957 30 2 30H4.8C5.90288 34.2849 8.16984 38.181 11.35 41.2573C14.5301 44.3335 18.4994 46.4699 22.8185 47.4299C27.1376 48.3899 31.6382 48.1362 35.822 46.6967C40.0059 45.2572 43.7098 42.6882 46.524 39.274C46.8619 38.865 47.0235 38.3386 46.9732 37.8105C46.923 37.2824 46.665 36.7959 46.256 36.458C45.847 36.1201 45.3206 35.9585 44.7925 36.0088C44.2644 36.059 43.7779 36.317 43.44 36.726H43.43Z" fill="#FB6400"/>
</g>
<defs>
<clipPath id="clip0_502_4194">
<rect width="48" height="48" fill="white"/>
</clipPath>
</defs>
</svg>
