<svg width="16" height="34" viewBox="0 0 16 34" fill="none" xmlns="http://www.w3.org/2000/svg">
<path fill-rule="evenodd" clip-rule="evenodd" d="M3.68399 33.1895C3.68399 33.4204 3.87149 33.6079 4.10235 33.6079H10.0672C10.2981 33.6079 10.4844 33.4204 10.4844 33.1895V16.8688H14.8086C15.0254 16.8688 15.207 16.7024 15.2246 16.4856L15.6406 11.5685C15.6617 11.3247 15.4695 11.1149 15.2246 11.1149H10.4844V7.62627C10.4844 6.8083 11.1477 6.14619 11.9656 6.14619H15.2973C15.5293 6.14619 15.7156 5.95869 15.7156 5.72783V0.809473C15.7156 0.578613 15.5293 0.391113 15.2973 0.391113H9.66758C6.36289 0.391113 3.68399 3.07002 3.68399 6.37354V11.1149H0.702736C0.471877 11.1149 0.284378 11.3024 0.284378 11.5333V16.4505C0.284378 16.6825 0.471877 16.8688 0.702736 16.8688H3.68399V33.1895Z" fill="white"/>
</svg>
