<svg width="24" height="24" viewBox="0 0 24 24" fill="none" xmlns="http://www.w3.org/2000/svg">
<g clip-path="url(#clip0_1039_4184)">
<path d="M12 23C15.3137 23 18 20.3137 18 17C18 13.6863 15.3137 11 12 11C8.68629 11 6 13.6863 6 17C6 20.3137 8.68629 23 12 23Z" fill="#FB6400"/>
<path d="M11.383 9.024L7.706 2.653C7.61823 2.50099 7.49199 2.37477 7.33998 2.28701C7.18796 2.19925 7.01553 2.15304 6.84 2.15304C6.66447 2.15304 6.49204 2.19925 6.34002 2.28701C6.18801 2.37477 6.06177 2.50099 5.974 2.653L0 13H5.074C5.72419 11.8752 6.6383 10.9255 7.73744 10.2328C8.83658 9.5401 10.0877 9.12524 11.383 9.024Z" fill="#FB6400"/>
<path d="M13 4V9.062C14.5889 9.26502 16.0807 9.93908 17.2832 10.9974C18.4857 12.0557 19.3438 13.4497 19.747 15H24V4H13Z" fill="#FB6400"/>
</g>
<defs>
<clipPath id="clip0_1039_4184">
<rect width="24" height="24" fill="white"/>
</clipPath>
</defs>
</svg>
