<svg width="32" height="32" viewBox="0 0 32 32" fill="none" xmlns="http://www.w3.org/2000/svg">
<path d="M15.9824 0C15.6701 0 15.3578 3.57628e-08 15.0481 0.0293334C10.9753 0.276024 7.15024 2.06604 4.35371 5.03402C1.55718 8.002 0 11.9242 0 16C0 20.0758 1.55718 23.998 4.35371 26.966C7.15024 29.934 10.9753 31.724 15.0481 31.9707C15.3578 31.992 15.6701 32 15.9824 32C20.2306 32 24.3047 30.3143 27.3086 27.3137C30.3124 24.3131 32 20.2435 32 16C32 11.7565 30.3124 7.68687 27.3086 4.68629C24.3047 1.68571 20.2306 6.32325e-08 15.9824 0ZM9.7089 16C9.02615 16.0013 8.35947 15.7931 7.79895 15.4037C7.23842 15.0143 6.81109 14.4624 6.57468 13.8226C6.33827 13.1828 6.30419 12.4859 6.47704 11.8261C6.64989 11.1663 7.02134 10.5755 7.54119 10.1333C6.6817 9.90212 5.8876 9.47493 5.22132 8.88533C5.1221 8.79014 5.0635 8.66036 5.05773 8.52305C5.05196 8.38575 5.09947 8.25152 5.19036 8.14836C5.28124 8.04519 5.40849 7.98105 5.54556 7.96931C5.68263 7.95757 5.81895 7.99913 5.92609 8.08533C6.82457 8.88704 8.00069 9.30704 9.20435 9.256C9.78177 9.23642 10.3492 9.0996 10.8719 8.85386C11.3947 8.60813 11.8619 8.25863 12.245 7.82667C12.3388 7.72058 12.471 7.65606 12.6124 7.64731C12.7539 7.63856 12.893 7.68629 12.9992 7.78C13.1054 7.87371 13.17 8.00572 13.1787 8.147C13.1875 8.28828 13.1397 8.42725 13.0459 8.53333C12.5828 9.058 12.0203 9.4858 11.3907 9.792C12.024 10.1608 12.5179 10.7277 12.7961 11.4051C13.0743 12.0825 13.1213 12.8326 12.9299 13.5394C12.7384 14.2461 12.3191 14.8702 11.7369 15.315C11.1546 15.7598 10.4419 16.0005 9.7089 16ZM15.9824 26.6667C15.2638 26.6938 14.5535 26.5057 13.9427 26.1266C13.3319 25.7474 12.8485 25.1945 12.5546 24.5389C12.2607 23.8833 12.1697 23.1549 12.2934 22.4473C12.417 21.7396 12.7496 21.085 13.2484 20.5676C13.7472 20.0502 14.3895 19.6935 15.0927 19.5434C15.796 19.3933 16.5281 19.4567 17.195 19.7253C17.862 19.9939 18.4333 20.4556 18.8356 21.051C19.238 21.6464 19.4529 22.3483 19.4529 23.0667C19.4618 23.5307 19.379 23.9919 19.2094 24.424C19.0397 24.8561 18.7866 25.2505 18.4643 25.5848C18.142 25.9191 17.7569 26.1867 17.3311 26.3724C16.9053 26.558 16.447 26.658 15.9824 26.6667ZM22.5229 16C21.863 16 21.2178 15.8045 20.669 15.4382C20.1203 15.072 19.6925 14.5514 19.44 13.9423C19.1874 13.3332 19.1213 12.663 19.2501 12.0164C19.3788 11.3698 19.6967 10.7758 20.1633 10.3096C20.63 9.84347 21.2246 9.526 21.8719 9.39738C22.5192 9.26877 23.1902 9.33478 23.8 9.58707C24.4097 9.83936 24.9309 10.2666 25.2976 10.8148C25.6642 11.3629 25.8599 12.0074 25.8599 12.6667C25.8599 13.5507 25.5084 14.3986 24.8826 15.0237C24.2568 15.6488 23.408 16 22.5229 16ZM26.6101 8.888C26.5128 8.97375 26.3875 9.02115 26.2577 9.02133C26.1819 9.02124 26.107 9.00502 26.0379 8.97375C25.9689 8.94248 25.9073 8.89689 25.8573 8.84C25.4747 8.40787 25.008 8.05806 24.4857 7.81187C23.9634 7.56569 23.3964 7.42827 22.8193 7.408C21.6157 7.35753 20.4398 7.77745 19.541 8.57867C19.489 8.62854 19.4275 8.66738 19.3601 8.69286C19.2927 8.71833 19.2208 8.72991 19.1488 8.72689C19.0768 8.72387 19.0061 8.70632 18.9411 8.67529C18.876 8.64427 18.818 8.60041 18.7703 8.54636C18.7227 8.49231 18.6866 8.42919 18.664 8.36081C18.6415 8.29242 18.633 8.22019 18.6392 8.14846C18.6453 8.07673 18.666 8.00698 18.6998 7.94343C18.7337 7.87987 18.7801 7.82383 18.8362 7.77867C19.9417 6.79414 21.3876 6.27856 22.8673 6.34133C23.5885 6.36726 24.2969 6.53977 24.9491 6.84834C25.6014 7.15691 26.1838 7.59505 26.6608 8.136C26.7538 8.24248 26.8007 8.38149 26.7912 8.52248C26.7817 8.66348 26.7166 8.79494 26.6101 8.888Z" fill="#9BB5D6"/>
</svg>
