<svg width="24" height="20" viewBox="0 0 24 20" fill="none" xmlns="http://www.w3.org/2000/svg">
<path d="M5.00019 20C5.53063 20 6.03934 19.7893 6.41441 19.4142C6.78948 19.0391 7.00019 18.5304 7.00019 18V12C7.00019 11.4696 6.78948 10.9609 6.41441 10.5858C6.03934 10.2107 5.53063 10 5.00019 10V9C5.00019 7.14348 5.73769 5.36301 7.05045 4.05025C8.3632 2.7375 10.1437 2 12.0002 2C13.8567 2 15.6372 2.7375 16.9499 4.05025C18.2627 5.36301 19.0002 7.14348 19.0002 9V10C18.4698 10 17.9611 10.2107 17.586 10.5858C17.2109 10.9609 17.0002 11.4696 17.0002 12V18H14.0002C13.735 18 13.4806 18.1054 13.2931 18.2929C13.1056 18.4804 13.0002 18.7348 13.0002 19C13.0002 19.2652 13.1056 19.5196 13.2931 19.7071C13.4806 19.8946 13.735 20 14.0002 20H19.0002C20.1462 19.9966 21.2563 19.5996 22.1445 18.8755C23.0328 18.1513 23.6453 17.1441 23.8796 16.0222C24.1139 14.9004 23.9558 13.7322 23.4316 12.7131C22.9074 11.694 22.049 10.8858 21.0002 10.424V9C21.0002 6.61305 20.052 4.32387 18.3642 2.63604C16.6763 0.948212 14.3871 0 12.0002 0C9.61325 0 7.32406 0.948212 5.63623 2.63604C3.94841 4.32387 3.00019 6.61305 3.00019 9V10.424C1.95135 10.8858 1.093 11.694 0.568816 12.7131C0.0446374 13.7322 -0.113544 14.9004 0.120752 16.0222C0.355049 17.1441 0.967602 18.1513 1.85586 18.8755C2.74413 19.5996 3.85418 19.9966 5.00019 20Z" fill="#FB6400"/>
</svg>
