<svg width="36" height="36" viewBox="0 0 36 36" fill="none" xmlns="http://www.w3.org/2000/svg">
<path fill-rule="evenodd" clip-rule="evenodd" d="M18.0012 23.7915C14.802 23.7915 12.2086 21.1993 12.2086 18C12.2086 14.8008 14.802 12.2086 18 12.2086C21.1992 12.2086 23.7926 14.8008 23.7926 18C23.7926 21.1981 21.1992 23.7915 18 23.7915H18.0012ZM10.8363 0.728955C4.39453 1.0231 1.01016 4.64653 0.730078 10.8364C0.514453 15.5215 0.514453 20.4786 0.730078 25.1649C1.01016 31.3536 4.39453 34.9782 10.8363 35.2711C15.5227 35.4856 20.4785 35.4856 25.1648 35.2711C31.3547 34.9887 34.977 31.609 35.2723 25.1649C35.4855 20.4774 35.4844 15.5239 35.2723 10.8364C34.984 4.527 31.4742 1.01606 25.1648 0.728955C20.4785 0.514502 15.5227 0.514502 10.8363 0.728955ZM25.0219 3.85669C29.7023 4.06997 31.9324 6.2977 32.1445 10.9782C32.3555 15.5672 32.3543 20.4329 32.1445 25.0219C31.9266 29.8372 29.5816 31.936 25.0219 32.1446C20.4316 32.3532 15.5695 32.3532 10.9793 32.1446C6.41953 31.936 4.07578 29.8372 3.85664 25.0219C3.64687 20.4329 3.64687 15.5672 3.85664 10.9782C4.06406 6.41841 6.16406 4.077 10.9793 3.85669C15.5695 3.64692 20.4316 3.64575 25.0219 3.85669ZM29.3613 8.72466C29.3613 9.87544 28.4273 10.8094 27.2766 10.8094C26.1234 10.8094 25.1906 9.87661 25.1906 8.72466C25.1906 7.57271 26.1234 6.63989 27.2766 6.63989C28.4273 6.63872 29.3613 7.57271 29.3613 8.72466ZM18.0012 9.07739C13.0734 9.07739 9.07734 13.0723 9.07734 18C9.07734 22.9278 13.0734 26.9227 18 26.9227C22.9289 26.9227 26.9238 22.9278 26.9238 18C26.9238 13.0723 22.9289 9.07739 18.0012 9.07739Z" fill="white"/>
</svg>
