<svg width="48" height="48" viewBox="0 0 48 48" fill="none" xmlns="http://www.w3.org/2000/svg">
<g clip-path="url(#clip0_502_4199)">
<path d="M22.2141 28.894C22.3302 29.131 22.4921 29.3427 22.6905 29.5169C22.8888 29.691 23.1197 29.8242 23.3698 29.9087C23.6198 29.9932 23.8841 30.0274 24.1475 30.0092C24.4108 29.9911 24.6679 29.921 24.9041 29.803C25.1402 29.685 25.3506 29.5214 25.5232 29.3217C25.6958 29.122 25.8272 28.8901 25.9097 28.6394C25.9923 28.3887 26.0244 28.1241 26.0042 27.861C25.984 27.5978 25.9119 27.3412 25.7921 27.106L14.7921 5.106C14.626 4.77371 14.3706 4.49425 14.0547 4.29892C13.7387 4.1036 13.3745 4.00014 13.0031 4.00014C12.6316 4.00014 12.2674 4.1036 11.9515 4.29892C11.6355 4.49425 11.3801 4.77371 11.2141 5.106L0.214062 27.106C0.0942337 27.3412 0.0221456 27.5978 0.00195408 27.861C-0.0182374 28.1241 0.0138672 28.3887 0.0964167 28.6394C0.178966 28.8901 0.310328 29.122 0.482928 29.3217C0.655528 29.5214 0.865951 29.685 1.10207 29.803C1.33818 29.921 1.59532 29.9911 1.85865 30.0092C2.12198 30.0274 2.3863 29.9932 2.63636 29.9087C2.88643 29.8242 3.11729 29.691 3.31564 29.5169C3.514 29.3427 3.67591 29.131 3.79206 28.894L7.23806 22H18.7661L22.2141 28.894ZM9.23806 18L13.0001 10.472L16.7661 18H9.23806Z" fill="#FB6400"/>
<path d="M47.4139 22.586C47.0389 22.2111 46.5302 22.0004 45.9999 22.0004C45.4696 22.0004 44.961 22.2111 44.5859 22.586L25.9999 41.172L17.4139 32.586C17.2294 32.395 17.0087 32.2426 16.7647 32.1378C16.5207 32.033 16.2583 31.9778 15.9927 31.9755C15.7272 31.9732 15.4638 32.0238 15.218 32.1244C14.9722 32.2249 14.7489 32.3734 14.5611 32.5612C14.3733 32.749 14.2248 32.9723 14.1243 33.2181C14.0237 33.4639 13.9731 33.7272 13.9754 33.9928C13.9777 34.2584 14.0329 34.5208 14.1377 34.7648C14.2425 35.0088 14.3949 35.2295 14.5859 35.414L24.5859 45.414C24.961 45.7889 25.4696 45.9996 25.9999 45.9996C26.5302 45.9996 27.0389 45.7889 27.4139 45.414L47.4139 25.414C47.7889 25.0389 47.9995 24.5303 47.9995 24C47.9995 23.4697 47.7889 22.9611 47.4139 22.586Z" fill="#FB6400"/>
</g>
<defs>
<clipPath id="clip0_502_4199">
<rect width="48" height="48" fill="white"/>
</clipPath>
</defs>
</svg>
