<svg width="48" height="48" viewBox="0 0 48 48" fill="none" xmlns="http://www.w3.org/2000/svg">
<g clip-path="url(#clip0_502_4208)">
<path d="M44.0001 0H36.0001C35.4696 0 34.9609 0.210714 34.5859 0.585786C34.2108 0.960859 34.0001 1.46957 34.0001 2C34.0001 2.53043 34.2108 3.03914 34.5859 3.41421C34.9609 3.78929 35.4696 4 36.0001 4H41.1721L36.3721 8.8C34.1831 7.14697 31.5535 6.17948 28.8151 6.01966C26.0768 5.85984 23.3525 6.51484 20.9861 7.902C19.2025 6.8714 17.2132 6.24773 15.1605 6.07563C13.1078 5.90352 11.0425 6.18722 9.11221 6.90644C7.18194 7.62566 5.4345 8.76261 3.9949 10.236C2.5553 11.7093 1.45912 13.4826 0.78481 15.429C0.110495 17.3754 -0.125294 19.4468 0.0943129 21.495C0.31392 23.5431 0.983495 25.5174 2.05513 27.2766C3.12677 29.0358 4.57397 30.5364 6.29321 31.6711C8.01244 32.8057 9.9612 33.5464 12.0001 33.84V38H8.00007C7.46963 38 6.96093 38.2107 6.58585 38.5858C6.21078 38.9609 6.00007 39.4696 6.00007 40C6.00007 40.5304 6.21078 41.0391 6.58585 41.4142C6.96093 41.7893 7.46963 42 8.00007 42H12.0001V46C12.0001 46.5304 12.2108 47.0391 12.5859 47.4142C12.9609 47.7893 13.4696 48 14.0001 48C14.5305 48 15.0392 47.7893 15.4143 47.4142C15.7894 47.0391 16.0001 46.5304 16.0001 46V42H20.0001C20.5305 42 21.0392 41.7893 21.4143 41.4142C21.7894 41.0391 22.0001 40.5304 22.0001 40C22.0001 39.4696 21.7894 38.9609 21.4143 38.5858C21.0392 38.2107 20.5305 38 20.0001 38H16.0001V33.854C17.7582 33.592 19.4495 32.9945 20.9821 32.094C23.7685 33.7238 27.0333 34.3384 30.2216 33.8335C33.4099 33.3286 36.325 31.7353 38.4715 29.3244C40.6181 26.9135 41.8636 23.8336 41.9964 20.6083C42.1292 17.383 41.1411 14.2113 39.2001 11.632L44.0001 6.832V12C44.0001 12.5304 44.2108 13.0391 44.5859 13.4142C44.9609 13.7893 45.4696 14 46.0001 14C46.5305 14 47.0392 13.7893 47.4143 13.4142C47.7894 13.0391 48.0001 12.5304 48.0001 12V4C48.0001 2.93913 47.5786 1.92172 46.8285 1.17157C46.0784 0.421427 45.0609 0 44.0001 0V0ZM4.00007 20C3.99059 18.3757 4.37924 16.7738 5.13202 15.3344C5.8848 13.8951 6.97878 12.6621 8.31829 11.7433C9.65779 10.8245 11.202 10.2479 12.8159 10.064C14.4298 9.87998 16.0641 10.0942 17.5761 10.688C15.274 13.2432 13.9999 16.5607 13.9999 20C13.9999 23.4393 15.274 26.7568 17.5761 29.312C16.0641 29.9058 14.4298 30.12 12.8159 29.936C11.202 29.7521 9.65779 29.1755 8.31829 28.2567C6.97878 27.3379 5.8848 26.1049 5.13202 24.6656C4.37924 23.2262 3.99059 21.6243 4.00007 20ZM28.0001 30C26.0223 30 24.0889 29.4135 22.4444 28.3147C20.7999 27.2159 19.5181 25.6541 18.7613 23.8268C18.0044 21.9996 17.8064 19.9889 18.1922 18.0491C18.5781 16.1093 19.5305 14.3275 20.929 12.9289C22.3275 11.5304 24.1094 10.578 26.0492 10.1921C27.989 9.8063 29.9996 10.0043 31.8269 10.7612C33.6542 11.5181 35.216 12.7998 36.3148 14.4443C37.4136 16.0888 38.0001 18.0222 38.0001 20C37.9969 22.6512 36.9423 25.1929 35.0676 27.0676C33.193 28.9422 30.6513 29.9968 28.0001 30Z" fill="#FB6400"/>
</g>
<defs>
<clipPath id="clip0_502_4208">
<rect width="48" height="48" fill="white"/>
</clipPath>
</defs>
</svg>
