<svg width="32" height="32" viewBox="0 0 32 32" fill="none" xmlns="http://www.w3.org/2000/svg">
<path d="M30.225 27.9C28.975 27.9 26.2 27.9 23.125 27.9C23.25 27.575 23.3 27.225 23.25 26.85C23.075 25.25 22.9 23.625 22.75 22.275C22.725 22.125 22.7251 22 22.7001 21.875C22.6251 21.375 22.45 20.625 21.8 20L21.6 19.8L21.35 19.675C21.175 19.6 20.9751 19.525 20.8251 19.475L20.725 19.45C20.2501 19.3 19.75 19.15 19.275 19L19.05 18.925C18.675 18.825 18.325 18.725 17.975 18.625C17.975 18.575 17.975 18.55 18 18.5C18.025 18.275 18.025 18.075 18 17.875C17.975 17.55 17.9 17.225 17.775 16.925C18.175 16.65 18.55 16.325 18.875 15.975C19.325 15.5 19.725 14.975 20.05 14.4C20.425 13.725 20.425 12.925 20.025 12.275L19.975 12.25C19.725 11.825 19.475 11.425 19.25 11C19 10.55 18.9 9.99995 18.8 9.32495C18.725 8.97495 18.6751 8.59995 18.5751 8.22495C18.2751 6.97495 17.775 5.89995 17.05 5.04995C17.575 4.57495 18.25 4.27495 19 4.22495C19.4 4.14995 19.8 4.12495 20.15 4.09995C20.275 4.09995 20.425 4.09995 20.55 4.07495C20.675 4.07495 20.8251 4.07495 20.9501 4.09995C21.2751 4.12495 21.675 4.14995 22.1 4.22495C23.8751 4.34995 25.2501 5.97495 25.3251 7.69995C25.35 8.24995 25.325 8.77495 25.3 9.17495C25.275 9.37495 25.25 9.54995 25.225 9.72495V9.74995C25.2001 9.87495 25.175 9.99995 25.15 10.125H25.175C25.7 10.25 25.975 10.8 25.9501 11.3V11.325C25.9501 11.475 25.9501 11.6 25.9501 11.725C25.9501 11.9 25.9 12.075 25.875 12.225C25.875 12.3 25.85 12.35 25.85 12.425V12.475C25.75 13.225 25.4001 13.8 24.8251 14.125C24.7501 14.15 24.75 14.175 24.75 14.2C24.575 14.875 24.3 15.55 23.875 16.125C23.8 16.225 23.725 16.325 23.65 16.425C23.3 16.85 23.1251 17.375 23.0751 17.9C23.0501 18.1 23.0501 18.3 23.0751 18.525C23.1001 18.825 23.2 19.1 23.425 19.3C23.425 19.3 23.4251 19.3 23.4501 19.325C23.7501 19.55 24.2 19.6 24.55 19.7C24.9 19.8 25.2501 19.875 25.5751 19.975C26.3251 20.175 27.05 20.375 27.775 20.6C28.325 20.75 28.9 20.925 29.425 21.1H29.4501C29.6 21.15 29.725 21.2 29.875 21.25C30.125 21.475 30.225 21.7999 30.3 22.25C30.325 22.35 30.3251 22.45 30.35 22.575C30.5251 24.1 30.675 25.65 30.85 27.2C30.9001 27.575 30.625 27.9 30.225 27.9Z" fill="#333333"/>
<path d="M21.7 27.05C21.525 25.525 21.35 23.975 21.2 22.45C21.2 22.325 21.175 22.225 21.15 22.125C21.075 21.675 20.95 21.375 20.725 21.125C20.6 21.075 20.45 21.025 20.325 20.975H20.3C19.75 20.8 19.2 20.625 18.65 20.475C17.925 20.275 17.175 20.05 16.45 19.85C16.1 19.75 15.75 19.675 15.425 19.575C15.075 19.475 14.625 19.45 14.325 19.2C14.325 19.2 14.3 19.2 14.3 19.175C14.075 19 14 18.7 13.95 18.4C13.925 18.175 13.925 17.975 13.95 17.775C13.975 17.475 14.05 17.175 14.175 16.875C14.75 16.725 15.275 16.55 15.8 16.3C16.55 15.95 17.2 15.475 17.75 14.9C18.1 14.525 18.425 14.125 18.675 13.65C18.775 13.45 18.775 13.275 18.675 13.075C18.4 12.625 18.15 12.175 17.9 11.7C17.375 10.725 17.35 9.64997 17.075 8.54997C16.8 7.37497 16.275 6.34997 15.45 5.57497C15.1 5.24997 14.7 4.94997 14.225 4.72497C13.175 4.19997 12.075 4.09997 10.9 4.19997C8.97499 4.39997 7.59999 5.29997 6.77499 6.94997C6.69999 7.12497 6.59999 7.29997 6.52499 7.47497C6.14999 8.39997 5.97499 9.39997 5.62499 10.35C5.24999 11.3 4.69999 12.15 4.19999 13.025C4.07499 13.275 4.04999 13.475 4.19999 13.7C4.54999 14.3 4.97499 14.8 5.44999 15.225C6.02499 15.725 6.67499 16.125 7.39999 16.45C7.82499 16.625 8.27499 16.775 8.69999 16.875C8.82499 17.15 8.89999 17.45 8.89999 17.75C8.92499 17.95 8.92499 18.15 8.89999 18.375C8.87499 18.675 8.77499 18.95 8.54999 19.15C8.54999 19.15 8.54999 19.15 8.52499 19.175C8.22499 19.4 7.77499 19.45 7.42499 19.55C7.07499 19.65 6.72499 19.725 6.39999 19.825C5.67499 20.025 4.92499 20.225 4.19999 20.45C3.64999 20.625 3.09999 20.775 2.54999 20.95H2.52499C2.37499 21 2.24999 21.05 2.12499 21.1C1.87499 21.325 1.77499 21.65 1.69999 22.1C1.67499 22.2 1.67499 22.3 1.64999 22.425C1.47499 23.95 1.32499 25.475 1.14999 27.025C1.09999 27.4 1.39999 27.725 1.77499 27.725C3.34999 27.725 7.39999 27.725 11.425 27.725C15.45 27.725 19.5 27.725 21.075 27.725C21.45 27.75 21.75 27.425 21.7 27.05Z" fill="#333333"/>
</svg>
