<svg width="36" height="36" viewBox="0 0 36 36" fill="none" xmlns="http://www.w3.org/2000/svg">
<path d="M2.06996 4.27487L1.88433 5.338C1.86425 5.44345 1.87477 5.55245 1.91463 5.65212C1.9545 5.7518 2.02206 5.83798 2.10933 5.9005C2.19133 5.95598 2.28652 5.98884 2.38529 5.99576C2.48406 6.00267 2.5829 5.98339 2.67183 5.93987L3.62808 5.43925L4.58433 5.93987C4.66328 5.98441 4.75244 6.00767 4.84308 6.00737C4.96223 6.0078 5.07844 5.97037 5.17496 5.9005C5.26223 5.83798 5.32978 5.7518 5.36965 5.65212C5.40952 5.55245 5.42004 5.44345 5.39996 5.338L5.24246 4.27487L6.01871 3.52112C6.09465 3.44774 6.1484 3.35447 6.17381 3.25197C6.19922 3.14948 6.19527 3.0419 6.16241 2.94154C6.12954 2.84119 6.06909 2.75211 5.98797 2.6845C5.90685 2.6169 5.80834 2.57349 5.70371 2.55925L4.64058 2.40737L4.16246 1.43987C4.1164 1.34477 4.04448 1.26456 3.95494 1.20844C3.86541 1.15232 3.76188 1.12256 3.65621 1.12256C3.55054 1.12256 3.447 1.15232 3.35747 1.20844C3.26793 1.26456 3.19602 1.34477 3.14996 1.43987L2.67183 2.40737L1.60871 2.55925C1.50407 2.57349 1.40556 2.6169 1.32444 2.6845C1.24332 2.75211 1.18287 2.84119 1.15001 2.94154C1.11714 3.0419 1.11319 3.14948 1.1386 3.25197C1.16401 3.35447 1.21777 3.44774 1.29371 3.52112L2.06996 4.27487ZM16.3125 7.03112C16.2794 6.93296 16.2199 6.84583 16.1405 6.77933C16.0611 6.71283 15.9649 6.66955 15.8625 6.65425L14.2143 6.40112L13.4775 4.82612C13.4327 4.72791 13.3607 4.64465 13.2699 4.58627C13.1791 4.52788 13.0735 4.49684 12.9656 4.49684C12.8577 4.49684 12.752 4.52788 12.6613 4.58627C12.5705 4.64465 12.4985 4.72791 12.4537 4.82612L11.7168 6.40112L10.0687 6.65425C9.96627 6.66955 9.87005 6.71283 9.79065 6.77933C9.71125 6.84583 9.65175 6.93296 9.61871 7.03112C9.58745 7.12782 9.58297 7.23119 9.60575 7.33023C9.62853 7.42927 9.67771 7.52029 9.74808 7.59362L10.9575 8.83112L10.6706 10.5861C10.658 10.6887 10.674 10.7927 10.7167 10.8868C10.7594 10.9808 10.8271 11.0613 10.9125 11.1194C10.998 11.1775 11.0977 11.211 11.2009 11.2162C11.3041 11.2213 11.4067 11.1979 11.4975 11.1486L12.9375 10.3667L14.4056 11.1824C14.4885 11.2271 14.5813 11.2503 14.6756 11.2499C14.7922 11.2508 14.9062 11.2154 15.0018 11.1486C15.0901 11.0868 15.1588 11.0009 15.1997 10.9012C15.2406 10.8015 15.2519 10.6921 15.2325 10.5861L14.9456 8.83112L16.155 7.59362C16.2302 7.52327 16.2847 7.43361 16.3124 7.33442C16.3402 7.23523 16.3402 7.13031 16.3125 7.03112Z" fill="#74ADF6"/>
<path d="M34.875 23.0625H32.625V24.1875H34.875V23.0625Z" fill="#74ADF6"/>
<path d="M9.00005 18H6.30005V18.9H9.00005V18Z" fill="#74ADF6"/>
<path d="M32.625 31.5H28.8057V32.625H32.625V31.5Z" fill="#74ADF6"/>
<path d="M26.4846 4.44009C25.2219 3.36703 23.8031 2.49262 22.2771 1.84696C22.1663 1.79849 22.0428 1.78702 21.9249 1.81425C21.8071 1.84149 21.7012 1.90599 21.6229 1.99817C21.5446 2.09036 21.4981 2.20533 21.4903 2.32602C21.4825 2.44672 21.5138 2.56672 21.5796 2.66821C23.3576 5.46347 24.1983 8.75267 23.9798 12.0583C23.7614 15.3639 22.495 18.5138 20.3646 21.0507C18.1771 23.7424 15.1343 25.6042 11.7419 26.3267C8.34953 27.0492 4.81208 26.5888 1.7177 25.022C1.61094 24.9673 1.48949 24.9482 1.37109 24.9674C1.25269 24.9866 1.14354 25.0432 1.05957 25.1288C0.975396 25.2152 0.921209 25.3263 0.905004 25.4459C0.888799 25.5654 0.911435 25.6869 0.969572 25.7926C1.95655 27.5932 3.26871 29.1952 4.83957 30.5176C7.80212 33.0567 11.5747 34.4532 15.4764 34.4551C15.9602 34.4551 16.4496 34.4551 16.9446 34.3932C19.1681 34.193 21.3294 33.5511 23.3017 32.505C25.2741 31.459 27.0178 30.0298 28.4308 28.3013C31.3009 24.8636 32.7052 20.4359 32.3412 15.9724C31.9771 11.5089 29.8738 7.36725 26.4846 4.44009Z" fill="#74ADF6"/>
</svg>
