<svg width="48" height="48" viewBox="0 0 48 48" fill="none" xmlns="http://www.w3.org/2000/svg">
<path d="M35.25 27.75C37.7999 27.707 40.2315 26.6666 42.0233 24.8518C43.8152 23.0371 44.8247 20.5925 44.8354 18.0423C44.8461 15.492 43.8571 13.0391 42.0805 11.2094C40.304 9.37971 37.8812 8.31893 35.3318 8.25451C34.0927 5.75081 32.1068 3.69365 29.6483 2.36719C27.1898 1.04073 24.3801 0.510426 21.6072 0.84954C18.8344 1.18865 16.2353 2.38045 14.1689 4.26029C12.1025 6.14014 10.6709 8.61526 10.0718 11.3438C8.1093 11.6258 6.31421 12.6056 5.01542 14.1036C3.71662 15.6016 3.00111 17.5174 3 19.5C3 24.0563 7.5 27.75 13.5 27.75H35.25Z" fill="#74ADF6"/>
<path d="M35.3325 8.25001H35.25C33.5264 8.25061 31.8339 8.70842 30.345 9.5767C28.8561 10.445 27.6242 11.6927 26.775 13.1925C24.8937 12.5825 22.8638 12.6091 20.9991 13.2684C19.1344 13.9276 17.5388 15.1827 16.459 16.8396C15.3791 18.4966 14.8751 20.4631 15.0248 22.4352C15.1746 24.4073 15.9698 26.2751 17.2875 27.75H13.5C7.5 27.75 3 24.06 3 19.5C3.00133 17.5169 3.71692 15.6007 5.01575 14.1022C6.31458 12.6036 8.10973 11.623 10.0725 11.34C10.6727 8.61236 12.1048 6.13827 14.1711 4.25925C16.2374 2.38023 18.836 1.18894 21.6083 0.849818C24.3805 0.510696 27.1896 1.04046 29.648 2.366C32.1063 3.69153 34.0925 5.74747 35.3325 8.25001Z" fill="#74ADF6"/>
<path d="M12.2 20.631C11.7402 21.5734 10.9571 22.3191 9.9933 22.7322C9.02954 23.1452 7.94942 23.1981 6.94995 22.881C4.9392 22.2255 3.7467 20.3813 3.34995 18.3173C3.25037 18.8326 3.20014 19.3562 3.19995 19.881C3.19995 24.441 7.69995 28.131 13.7 28.131H17.4875C16.4025 26.9147 15.6682 25.4266 15.3629 23.8255C15.0576 22.2245 15.1929 20.5706 15.7543 19.0404C16.3156 17.5102 17.282 16.1611 18.5502 15.1373C19.8184 14.1134 21.3408 13.4532 22.955 13.227C17.9225 13.245 14.5842 16.4588 12.2 20.631ZM26.5572 13.4475C26.7072 13.488 26.8572 13.5263 27.0005 13.5735C27.8497 12.0737 29.0816 10.826 30.5705 9.95774C32.0593 9.08945 33.7519 8.63165 35.4755 8.63104H35.558C35.3097 8.13744 35.0315 7.65954 34.7247 7.20004C28.3857 7.78804 26.8797 12.0615 26.5572 13.4475Z" fill="#74ADF6"/>
<path d="M39.8316 33.255C39.9959 33.3637 40.137 33.5038 40.2468 33.6673C40.3566 33.8309 40.4328 34.0145 40.4712 34.2077C40.5096 34.4009 40.5093 34.5998 40.4703 34.7929C40.4313 34.9859 40.3544 35.1693 40.2441 35.3325L34.2441 44.3325C34.0137 44.6389 33.6746 44.8455 33.2966 44.9097C32.9186 44.9739 32.5303 44.8909 32.2116 44.6778C31.8929 44.4647 31.6678 44.1376 31.5828 43.7637C31.4977 43.3898 31.559 42.9976 31.7541 42.6675L37.7541 33.6675C37.8628 33.5032 38.0029 33.3621 38.1665 33.2524C38.33 33.1426 38.5137 33.0663 38.7069 33.028C38.9 32.9896 39.0989 32.9899 39.292 33.0289C39.485 33.0679 39.6685 33.1447 39.8316 33.255ZM36.1116 27.705L24.5249 46.5375C24.3913 46.7556 24.2038 46.9357 23.9806 47.0605C23.7573 47.1853 23.5057 47.2505 23.2499 47.25C22.9717 47.2488 22.6992 47.1709 22.4624 47.025C22.1245 46.8159 21.8835 46.4813 21.7921 46.0946C21.7007 45.7079 21.7664 45.3008 21.9749 44.9625L32.5641 27.75H35.2499C35.5377 27.7502 35.8254 27.7351 36.1116 27.705ZM27.0899 27.75L15.5249 46.5375C15.3913 46.7556 15.2038 46.9357 14.9806 47.0605C14.7573 47.1853 14.5057 47.2505 14.2499 47.25C13.9717 47.2488 13.6992 47.1709 13.4624 47.025C13.1245 46.8159 12.8835 46.4813 12.7921 46.0946C12.7007 45.7079 12.7664 45.3008 12.9749 44.9625L23.5649 27.75H27.0899ZM18.0899 27.75L6.52489 46.5375C6.39128 46.7556 6.20384 46.9357 5.98056 47.0605C5.75728 47.1853 5.50567 47.2505 5.24989 47.25C4.97171 47.2488 4.69924 47.1709 4.46239 47.025C4.12454 46.8159 3.88345 46.4813 3.79205 46.0946C3.70065 45.7079 3.76641 45.3008 3.97489 44.9625L14.5649 27.75H18.0899ZM6.83314 29.505C6.99742 29.6137 7.13852 29.7538 7.2483 29.9173C7.35808 30.0809 7.43435 30.2645 7.47271 30.4577C7.51107 30.6509 7.51075 30.8498 7.47178 31.0429C7.4328 31.2359 7.35594 31.4193 7.24564 31.5825L4.24564 36.0825C4.01517 36.3889 3.6761 36.5955 3.29809 36.6597C2.92008 36.7239 2.53183 36.6409 2.2131 36.4278C1.89436 36.2147 1.66935 35.8876 1.58427 35.5137C1.49919 35.1398 1.56052 34.7476 1.75564 34.4175L4.75564 29.9175C4.8643 29.7532 5.00445 29.6121 5.16798 29.5024C5.3315 29.3926 5.51517 29.3163 5.70836 29.278C5.90154 29.2396 6.10042 29.2399 6.29348 29.2789C6.48654 29.3179 6.66997 29.3947 6.83314 29.505Z" fill="#74ADF6"/>
<path d="M36.1117 27.705C35.8254 27.7351 35.5377 27.7502 35.2499 27.75H32.5649L31.1812 30H34.7001L36.1117 27.705ZM23.5649 27.75L22.1804 30H25.7047L27.0899 27.75H23.5649ZM14.5649 27.75L13.1812 30H16.7054L18.0899 27.75H14.5649Z" fill="#74ADF6"/>
</svg>
