<svg width="18" height="18" viewBox="0 0 18 18" fill="none" xmlns="http://www.w3.org/2000/svg">
<path d="M17.091 14.6649L17.091 14.6649C16.9879 13.5066 16.0578 12.6314 14.953 12.6314C13.9295 12.6314 13.061 13.3833 12.855 14.4101H5.1803C3.8581 14.4101 2.78173 13.3375 2.78173 12.0199C2.78173 10.7023 3.85807 9.62974 5.1803 9.62974H13.1328C14.9441 9.62974 16.4131 8.14711 16.4131 6.3281C16.4131 4.50902 14.9407 3.02646 13.1328 3.02646H7.82797L9.12818 1.66953L9.12821 1.66955L9.12993 1.66766C9.29453 1.48682 9.29131 1.20234 9.12047 1.02864L9.12048 1.02863L9.11953 1.0277C8.94762 0.857475 8.6769 0.857475 8.50499 1.0277L8.50497 1.02767L8.50315 1.02957L6.45794 3.164C6.28794 3.34141 6.28794 3.62654 6.45794 3.80396L8.50315 5.93838L8.50313 5.93841L8.50495 5.94022C8.68081 6.11455 8.96054 6.11087 9.12908 5.93034L9.12997 5.92936C9.29078 5.75248 9.29078 5.47722 9.12997 5.30034L9.12999 5.30032L9.12826 5.29851L7.82759 3.93793H13.1328C14.455 3.93793 15.5313 5.01049 15.5313 6.3281C15.5313 7.64571 14.455 8.71828 13.1328 8.71828H5.1803C3.36893 8.71828 1.9 10.2009 1.9 12.0199C1.9 13.839 3.37238 15.3216 5.1803 15.3216H12.8549C13.0914 16.5119 14.2117 17.3005 15.3825 17.0554L15.3826 17.0554C16.451 16.8309 17.1906 15.7901 17.091 14.6649ZM14.953 16.1852C14.2589 16.1852 13.6895 15.5973 13.6895 14.8623C13.6895 14.1273 14.2589 13.5393 14.953 13.5393C15.6471 13.5393 16.2165 14.1273 16.2165 14.8623C16.2165 15.5973 15.6471 16.1852 14.953 16.1852Z" fill="#FB6400" stroke="#FB6400" stroke-width="0.2"/>
<path d="M3 2.76669C2.31854 2.76669 1.76666 3.3186 1.76666 4.00003C1.76666 4.68145 2.31857 5.23334 3 5.23337V2.76669ZM3 2.76669C3.68143 2.76669 4.23334 3.31857 4.23334 4.00003M3 2.76669L4.23334 4.00003M4.23334 4.00003C4.23334 4.68146 3.68146 5.23337 3 5.23337L4.23334 4.00003ZM5.1 4.00033V4.00003C5.1 2.84146 4.15857 1.90003 3 1.90003C1.84143 1.90003 0.9 2.84146 0.9 4.00003C0.9 5.1586 1.84143 6.10003 3 6.10003C4.15874 6.10003 5.09649 5.16181 5.1 4.00033Z" fill="#FB6400" stroke="#FB6400" stroke-width="0.2"/>
</svg>
