<svg width="20" height="20" viewBox="0 0 20 20" fill="none" xmlns="http://www.w3.org/2000/svg">
<path fill-rule="evenodd" clip-rule="evenodd" d="M8.5 1.75C7.61358 1.75 6.73583 1.9246 5.91689 2.26382C5.09794 2.60304 4.35382 3.10024 3.72703 3.72703C3.10023 4.35383 2.60303 5.09794 2.26381 5.91689C1.92459 6.73584 1.75 7.61358 1.75 8.5C1.75 9.38643 1.92459 10.2642 2.26381 11.0831C2.60303 11.9021 3.10023 12.6462 3.72703 13.273C4.35382 13.8998 5.09794 14.397 5.91689 14.7362C6.73583 15.0754 7.61358 15.25 8.5 15.25C10.2902 15.25 12.0071 14.5388 13.273 13.273C14.5388 12.0071 15.25 10.2902 15.25 8.5C15.25 6.70979 14.5388 4.9929 13.273 3.72703C12.0071 2.46116 10.2902 1.75 8.5 1.75ZM0.25 8.5C0.250175 7.1751 0.56944 5.86973 1.18079 4.6943C1.79214 3.51888 2.67759 2.50798 3.76224 1.74712C4.84689 0.986266 6.09883 0.497828 7.41216 0.323128C8.7255 0.148427 10.0616 0.292603 11.3074 0.743459C12.5533 1.19432 13.6722 1.93859 14.5695 2.91332C15.4669 3.88806 16.1163 5.06458 16.4628 6.34336C16.8094 7.62215 16.8428 8.96558 16.5603 10.26C16.2778 11.5545 15.6878 12.7618 14.84 13.78L19.53 18.47C19.6037 18.5387 19.6628 18.6215 19.7038 18.7135C19.7448 18.8055 19.7668 18.9048 19.7686 19.0055C19.7704 19.1062 19.7518 19.2062 19.7141 19.2996C19.6764 19.393 19.6203 19.4778 19.549 19.549C19.4778 19.6203 19.393 19.6764 19.2996 19.7141C19.2062 19.7518 19.1062 19.7704 19.0055 19.7686C18.9048 19.7668 18.8055 19.7448 18.7135 19.7038C18.6215 19.6628 18.5387 19.6037 18.47 19.53L13.78 14.84C12.5752 15.8435 11.1094 16.4829 9.55432 16.6833C7.99922 16.8836 6.41922 16.6367 4.99941 15.9714C3.5796 15.3061 2.37878 14.25 1.53763 12.9267C0.69648 11.6035 0.249828 10.068 0.25 8.5Z" fill="#FB6400"/>
</svg>
