<svg width="24" height="24" viewBox="0 0 24 24" fill="none" xmlns="http://www.w3.org/2000/svg">
<g clip-path="url(#clip0_574_7018)">
<path d="M12 24C18.6274 24 24 18.6274 24 12C24 5.37258 18.6274 0 12 0C5.37258 0 0 5.37258 0 12C0 18.6274 5.37258 24 12 24Z" fill="#FFDD67"/>
<path d="M12 19.2096C10.5565 19.2098 9.14881 18.7598 7.97307 17.9223C6.79732 17.0848 5.91202 15.9015 5.44045 14.5372C5.40049 14.4341 5.38171 14.324 5.38523 14.2135C5.38875 14.103 5.4145 13.9944 5.46094 13.894C5.50738 13.7937 5.57356 13.7038 5.65552 13.6296C5.73749 13.5554 5.83356 13.4985 5.93801 13.4623C6.04245 13.4261 6.15313 13.4113 6.26342 13.4187C6.37372 13.4262 6.48138 13.4559 6.57996 13.5059C6.67855 13.5559 6.76605 13.6253 6.83723 13.7099C6.90842 13.7944 6.96183 13.8925 6.99428 13.9982C7.35227 15.0412 8.02713 15.9464 8.92458 16.5872C9.82203 17.228 10.8972 17.5725 12 17.5725C13.1027 17.5725 14.178 17.228 15.0754 16.5872C15.9729 15.9464 16.6477 15.0412 17.0057 13.9982C17.0382 13.8925 17.0916 13.7944 17.1628 13.7099C17.2339 13.6253 17.3214 13.5559 17.42 13.5059C17.5186 13.4559 17.6263 13.4262 17.7366 13.4187C17.8469 13.4113 17.9575 13.4261 18.062 13.4623C18.1664 13.4985 18.2625 13.5554 18.3445 13.6296C18.4264 13.7038 18.4926 13.7937 18.5391 13.894C18.5855 13.9944 18.6112 14.103 18.6148 14.2135C18.6183 14.324 18.5995 14.4341 18.5595 14.5372C18.088 15.9015 17.2027 17.0848 16.0269 17.9223C14.8512 18.7598 13.4435 19.2098 12 19.2096Z" fill="#B26D3C"/>
<path d="M15.9771 10.6519C16.8482 10.6519 17.5543 9.94578 17.5543 9.07475C17.5543 8.20372 16.8482 7.4976 15.9771 7.4976C15.1061 7.4976 14.4 8.20372 14.4 9.07475C14.4 9.94578 15.1061 10.6519 15.9771 10.6519Z" fill="#B26D3C"/>
<path d="M8.02285 10.6519C8.89388 10.6519 9.59999 9.94578 9.59999 9.07475C9.59999 8.20372 8.89388 7.4976 8.02285 7.4976C7.15182 7.4976 6.44571 8.20372 6.44571 9.07475C6.44571 9.94578 7.15182 10.6519 8.02285 10.6519Z" fill="#B26D3C"/>
</g>
<defs>
<clipPath id="clip0_574_7018">
<rect width="24" height="24" fill="white"/>
</clipPath>
</defs>
</svg>
