<svg width="32" height="36" viewBox="0 0 32 36" fill="none" xmlns="http://www.w3.org/2000/svg">
<path fill-rule="evenodd" clip-rule="evenodd" d="M22.7383 0.423096C22.7395 0.959814 22.8977 8.72349 31.0434 9.20747C31.0434 11.4458 31.0457 13.0688 31.0457 15.2051C30.4293 15.2403 25.6832 14.8958 22.7289 12.2614L22.7195 23.9379C22.832 32.0426 16.8684 36.9739 9.07188 35.27C-4.3707 31.2493 0.0964878 11.3122 13.5941 13.445C13.5941 19.8821 13.5977 13.4438 13.5977 19.8821C8.02188 19.0618 6.15625 23.7 7.63867 27.0223C8.98633 30.0458 14.5387 30.7008 16.4758 26.4352C16.6949 25.6008 16.8039 24.6481 16.8039 23.5793V0.393799L22.7383 0.423096Z" fill="white"/>
</svg>
