<svg width="48" height="48" viewBox="0 0 48 48" fill="none" xmlns="http://www.w3.org/2000/svg">
<path d="M21.9999 46C21.9999 45.6044 22.1172 45.2178 22.337 44.8889C22.5567 44.56 22.8691 44.3036 23.2346 44.1522C23.6 44.0009 24.0021 43.9613 24.3901 44.0384C24.7781 44.1156 25.1344 44.3061 25.4141 44.5858C25.6938 44.8655 25.8843 45.2219 25.9615 45.6098C26.0387 45.9978 25.9991 46.3999 25.8477 46.7654C25.6963 47.1308 25.44 47.4432 25.1111 47.6629C24.7822 47.8827 24.3955 48 23.9999 48C23.4695 48 22.9608 47.7893 22.5857 47.4142C22.2106 47.0391 21.9999 46.5304 21.9999 46ZM31.0699 38.928C29.1946 37.0533 26.6516 36.0001 23.9999 36.0001C21.3483 36.0001 18.8052 37.0533 16.9299 38.928L19.7579 41.756C20.9013 40.6661 22.4203 40.0581 23.9999 40.0581C25.5795 40.0581 27.0986 40.6661 28.2419 41.756L31.0699 38.928ZM36.7279 33.272C33.3497 29.9012 28.7722 28.0081 23.9999 28.0081C19.2276 28.0081 14.6502 29.9012 11.2719 33.272L14.0999 36.1C16.7283 33.4796 20.2884 32.0081 23.9999 32.0081C27.7114 32.0081 31.2715 33.4796 33.8999 36.1L36.7279 33.272ZM35.5799 14.418C34.6875 10.5999 32.4242 7.24244 29.2197 4.983C26.0152 2.72356 22.0925 1.71948 18.1966 2.16139C14.3006 2.6033 10.7025 4.46043 8.08539 7.38019C5.46832 10.2999 4.01449 14.079 3.99992 18C3.99796 20.5568 4.61558 23.076 5.79992 25.342C3.64217 26.4983 1.93272 28.3425 0.94316 30.5816C-0.0464016 32.8207 -0.259309 35.3263 0.338265 37.7003C0.935838 40.0742 2.30962 42.1804 4.24133 43.6842C6.17304 45.188 8.55189 46.0031 10.9999 46H17.9999C17.9999 45.894 18.0259 45.8 18.0319 45.688L14.3439 42H10.9999C9.29677 42.0051 7.65049 41.3875 6.37096 40.2634C5.09142 39.1393 4.26689 37.5863 4.05255 35.8967C3.83821 34.2071 4.24886 32.4974 5.20719 31.0894C6.16552 29.6814 7.60544 28.6723 9.25592 28.252L12.0559 27.528L12.1119 27.496L10.3559 25.126C8.82105 23.0677 7.99444 20.5675 7.99992 18C8.02606 14.9743 9.19427 12.0702 11.2706 9.86916C13.347 7.66817 16.1781 6.33281 19.1972 6.13051C22.2162 5.92822 25.2003 6.87391 27.5517 8.77821C29.9031 10.6825 31.4483 13.4048 31.8779 16.4L32.0779 17.916L33.5959 18.116C36.4562 18.4986 39.0825 19.9004 40.9921 22.064C42.9017 24.2275 43.9665 27.0075 43.9908 29.8932C44.0152 32.7789 42.9974 35.5765 41.1245 37.7719C39.2516 39.9674 36.6494 41.4133 33.7959 41.844L29.9579 45.684C29.9579 45.79 29.9899 45.884 29.9899 45.996H31.9899C35.9101 45.9813 39.6884 44.5279 42.6079 41.9117C45.5273 39.2955 47.3847 35.6985 47.8275 31.8035C48.2703 27.9084 47.2678 23.9863 45.0101 20.7815C42.7524 17.5767 39.3967 15.3123 35.5799 14.418Z" fill="#FB6400"/>
</svg>
