<svg width="28" height="28" viewBox="0 0 28 28" fill="none" xmlns="http://www.w3.org/2000/svg">
<rect x="0.5" y="0.5" width="27" height="27" rx="3.5" fill="white" stroke="#AAAAAA"/>
<path d="M11.5064 8.61872H11.3752C11.4474 8.61872 11.5064 8.55966 11.5064 8.48747V8.61872H16.4939V8.48747C16.4939 8.55966 16.553 8.61872 16.6252 8.61872H16.4939V9.79997H17.6752V8.48747C17.6752 7.90833 17.2043 7.43747 16.6252 7.43747H11.3752C10.7961 7.43747 10.3252 7.90833 10.3252 8.48747V9.79997H11.5064V8.61872ZM19.7752 9.79997H8.2252C7.9348 9.79997 7.7002 10.0346 7.7002 10.325V10.85C7.7002 10.9222 7.75926 10.9812 7.83145 10.9812H8.82238L9.22762 19.5617C9.25387 20.1211 9.71652 20.5625 10.276 20.5625H17.7244C18.2855 20.5625 18.7465 20.1228 18.7728 19.5617L19.178 10.9812H20.1689C20.2411 10.9812 20.3002 10.9222 20.3002 10.85V10.325C20.3002 10.0346 20.0656 9.79997 19.7752 9.79997ZM17.5981 19.3812H10.4023L10.0053 10.9812H17.9951L17.5981 19.3812Z" fill="#777777"/>
</svg>
