<svg width="28" height="28" viewBox="0 0 28 28" fill="none" xmlns="http://www.w3.org/2000/svg">
<path d="M22.75 14C22.75 13.7679 22.8422 13.5454 23.0063 13.3813C23.1704 13.2172 23.3929 13.125 23.625 13.125C23.8571 13.125 24.0796 13.2172 24.2437 13.3813C24.4078 13.5454 24.5 13.7679 24.5 14V23.625C24.5 23.8571 24.4078 24.0796 24.2437 24.2437C24.0796 24.4078 23.8571 24.5 23.625 24.5H4.375C4.14294 24.5 3.92038 24.4078 3.75628 24.2437C3.59219 24.0796 3.5 23.8571 3.5 23.625V4.375C3.5 4.14294 3.59219 3.92038 3.75628 3.75628C3.92038 3.59219 4.14294 3.5 4.375 3.5H14C14.2321 3.5 14.4546 3.59219 14.6187 3.75628C14.7828 3.92038 14.875 4.14294 14.875 4.375C14.875 4.60706 14.7828 4.82962 14.6187 4.99372C14.4546 5.15781 14.2321 5.25 14 5.25H5.25V22.75H22.75V14Z" fill="#555555"/>
<path d="M12.8502 15.155L14.294 14.9485L23.163 6.08125C23.2465 6.00053 23.3132 5.90398 23.3591 5.79723C23.4049 5.69047 23.4291 5.57566 23.4301 5.45948C23.4311 5.34329 23.4089 5.22807 23.3649 5.12054C23.3209 5.013 23.256 4.91531 23.1738 4.83315C23.0917 4.751 22.994 4.68603 22.8864 4.64203C22.7789 4.59803 22.6637 4.5759 22.5475 4.5769C22.4313 4.57791 22.3165 4.60205 22.2097 4.64791C22.103 4.69377 22.0064 4.76043 21.9257 4.844L13.055 13.7112L12.8485 15.155H12.8502ZM24.4002 3.605C24.6442 3.84877 24.8377 4.13823 24.9697 4.45682C25.1017 4.77541 25.1697 5.11689 25.1697 5.46175C25.1697 5.80661 25.1017 6.14809 24.9697 6.46668C24.8377 6.78527 24.6442 7.07472 24.4002 7.3185L15.3265 16.3922C15.1927 16.5265 15.0189 16.6138 14.8312 16.6407L11.9437 17.0537C11.8092 17.0731 11.6719 17.0608 11.5429 17.0178C11.414 16.9749 11.2967 16.9025 11.2006 16.8064C11.1045 16.7102 11.0321 16.593 10.9891 16.464C10.9462 16.335 10.9339 16.1978 10.9532 16.0632L11.3662 13.1757C11.3927 12.9883 11.4793 12.8145 11.613 12.6805L20.6885 3.60675C21.1807 3.11464 21.8483 2.83818 22.5443 2.83818C23.2404 2.83818 23.908 3.11464 24.4002 3.60675V3.605Z" fill="#555555"/>
</svg>
