<svg width="28" height="28" viewBox="0 0 28 28" fill="none" xmlns="http://www.w3.org/2000/svg">
<path d="M27.0721 13.7025C26.043 11.0404 24.2564 8.73829 21.9331 7.08057C19.6098 5.42286 16.8517 4.48225 13.9996 4.375C11.1476 4.48225 8.38947 5.42286 6.06618 7.08057C3.74289 8.73829 1.95627 11.0404 0.927128 13.7025C0.857624 13.8947 0.857624 14.1053 0.927128 14.2975C1.95627 16.9596 3.74289 19.2617 6.06618 20.9194C8.38947 22.5771 11.1476 23.5177 13.9996 23.625C16.8517 23.5177 19.6098 22.5771 21.9331 20.9194C24.2564 19.2617 26.043 16.9596 27.0721 14.2975C27.1416 14.1053 27.1416 13.8947 27.0721 13.7025ZM13.9996 21.875C9.36213 21.875 4.46213 18.4362 2.68588 14C4.46213 9.56375 9.36213 6.125 13.9996 6.125C18.6371 6.125 23.5371 9.56375 25.3134 14C23.5371 18.4362 18.6371 21.875 13.9996 21.875Z" fill="#555555"/>
<path d="M14 8.75C12.9616 8.75 11.9466 9.05791 11.0833 9.63478C10.2199 10.2117 9.54699 11.0316 9.14963 11.9909C8.75227 12.9502 8.64831 14.0058 8.85088 15.0242C9.05345 16.0426 9.55347 16.9781 10.2877 17.7123C11.0219 18.4465 11.9574 18.9466 12.9758 19.1491C13.9942 19.3517 15.0498 19.2477 16.0091 18.8504C16.9684 18.453 17.7883 17.7801 18.3652 16.9167C18.9421 16.0534 19.25 15.0384 19.25 14C19.25 12.6076 18.6969 11.2723 17.7123 10.2877C16.7277 9.30312 15.3924 8.75 14 8.75ZM14 17.5C13.3078 17.5 12.6311 17.2947 12.0555 16.9101C11.4799 16.5256 11.0313 15.9789 10.7664 15.3394C10.5015 14.6999 10.4322 13.9961 10.5673 13.3172C10.7023 12.6383 11.0356 12.0146 11.5251 11.5251C12.0146 11.0356 12.6383 10.7023 13.3172 10.5673C13.9961 10.4322 14.6999 10.5015 15.3394 10.7664C15.9789 11.0313 16.5256 11.4799 16.9101 12.0555C17.2947 12.6311 17.5 13.3078 17.5 14C17.5 14.9283 17.1313 15.8185 16.4749 16.4749C15.8185 17.1313 14.9283 17.5 14 17.5Z" fill="#555555"/>
</svg>
